<mxfile host="app.diagrams.net" agent="Mozilla/5.0 (Windows NT 10.0; Win64; x64) AppleWebKit/537.36 (KHTML, like Gecko) Chrome/136.0.0.0 Safari/537.36" version="27.0.2">
  <diagram name="Page-1" id="8anlcZpaE3cIuBtAG_Nz">
    <mxGraphModel dx="1426" dy="1865" grid="1" gridSize="12" guides="1" tooltips="1" connect="1" arrows="1" fold="1" page="1" pageScale="1" pageWidth="850" pageHeight="1100" background="light-dark(#FFFFFF,#121212)" math="0" shadow="0">
      <root>
        <mxCell id="0" />
        <mxCell id="1" parent="0" />
        <mxCell id="vpoopPvdClBrJ7Ifae0P-97" value="Educational Category" style="shape=table;startSize=30;container=1;collapsible=0;childLayout=tableLayout;" vertex="1" parent="1">
          <mxGeometry x="24" y="-1092" width="336" height="180" as="geometry" />
        </mxCell>
        <mxCell id="vpoopPvdClBrJ7Ifae0P-122" style="shape=tableRow;horizontal=0;startSize=0;swimlaneHead=0;swimlaneBody=0;strokeColor=inherit;top=0;left=0;bottom=0;right=0;collapsible=0;dropTarget=0;fillColor=none;points=[[0,0.5],[1,0.5]];portConstraint=eastwest;" vertex="1" parent="vpoopPvdClBrJ7Ifae0P-97">
          <mxGeometry y="30" width="336" height="30" as="geometry" />
        </mxCell>
        <mxCell id="vpoopPvdClBrJ7Ifae0P-123" value="Fields" style="shape=partialRectangle;html=1;whiteSpace=wrap;connectable=0;strokeColor=inherit;overflow=hidden;fillColor=none;top=0;left=0;bottom=0;right=0;pointerEvents=1;" vertex="1" parent="vpoopPvdClBrJ7Ifae0P-122">
          <mxGeometry width="84" height="30" as="geometry">
            <mxRectangle width="84" height="30" as="alternateBounds" />
          </mxGeometry>
        </mxCell>
        <mxCell id="vpoopPvdClBrJ7Ifae0P-124" value="Type" style="shape=partialRectangle;html=1;whiteSpace=wrap;connectable=0;strokeColor=inherit;overflow=hidden;fillColor=none;top=0;left=0;bottom=0;right=0;pointerEvents=1;" vertex="1" parent="vpoopPvdClBrJ7Ifae0P-122">
          <mxGeometry x="84" width="120" height="30" as="geometry">
            <mxRectangle width="120" height="30" as="alternateBounds" />
          </mxGeometry>
        </mxCell>
        <mxCell id="vpoopPvdClBrJ7Ifae0P-125" value="Description" style="shape=partialRectangle;html=1;whiteSpace=wrap;connectable=0;strokeColor=inherit;overflow=hidden;fillColor=none;top=0;left=0;bottom=0;right=0;pointerEvents=1;" vertex="1" parent="vpoopPvdClBrJ7Ifae0P-122">
          <mxGeometry x="204" width="132" height="30" as="geometry">
            <mxRectangle width="132" height="30" as="alternateBounds" />
          </mxGeometry>
        </mxCell>
        <mxCell id="vpoopPvdClBrJ7Ifae0P-98" value="" style="shape=tableRow;horizontal=0;startSize=0;swimlaneHead=0;swimlaneBody=0;strokeColor=inherit;top=0;left=0;bottom=0;right=0;collapsible=0;dropTarget=0;fillColor=none;points=[[0,0.5],[1,0.5]];portConstraint=eastwest;" vertex="1" parent="vpoopPvdClBrJ7Ifae0P-97">
          <mxGeometry y="60" width="336" height="30" as="geometry" />
        </mxCell>
        <mxCell id="vpoopPvdClBrJ7Ifae0P-99" value="id" style="shape=partialRectangle;html=1;whiteSpace=wrap;connectable=0;strokeColor=inherit;overflow=hidden;fillColor=none;top=0;left=0;bottom=0;right=0;pointerEvents=1;" vertex="1" parent="vpoopPvdClBrJ7Ifae0P-98">
          <mxGeometry width="84" height="30" as="geometry">
            <mxRectangle width="84" height="30" as="alternateBounds" />
          </mxGeometry>
        </mxCell>
        <mxCell id="vpoopPvdClBrJ7Ifae0P-100" value="BIGINT(19)" style="shape=partialRectangle;html=1;whiteSpace=wrap;connectable=0;strokeColor=inherit;overflow=hidden;fillColor=none;top=0;left=0;bottom=0;right=0;pointerEvents=1;" vertex="1" parent="vpoopPvdClBrJ7Ifae0P-98">
          <mxGeometry x="84" width="120" height="30" as="geometry">
            <mxRectangle width="120" height="30" as="alternateBounds" />
          </mxGeometry>
        </mxCell>
        <mxCell id="vpoopPvdClBrJ7Ifae0P-101" value="Primary Key" style="shape=partialRectangle;html=1;whiteSpace=wrap;connectable=0;strokeColor=inherit;overflow=hidden;fillColor=none;top=0;left=0;bottom=0;right=0;pointerEvents=1;" vertex="1" parent="vpoopPvdClBrJ7Ifae0P-98">
          <mxGeometry x="204" width="132" height="30" as="geometry">
            <mxRectangle width="132" height="30" as="alternateBounds" />
          </mxGeometry>
        </mxCell>
        <mxCell id="vpoopPvdClBrJ7Ifae0P-102" value="" style="shape=tableRow;horizontal=0;startSize=0;swimlaneHead=0;swimlaneBody=0;strokeColor=inherit;top=0;left=0;bottom=0;right=0;collapsible=0;dropTarget=0;fillColor=none;points=[[0,0.5],[1,0.5]];portConstraint=eastwest;" vertex="1" parent="vpoopPvdClBrJ7Ifae0P-97">
          <mxGeometry y="90" width="336" height="30" as="geometry" />
        </mxCell>
        <mxCell id="vpoopPvdClBrJ7Ifae0P-103" value="title" style="shape=partialRectangle;html=1;whiteSpace=wrap;connectable=0;strokeColor=inherit;overflow=hidden;fillColor=none;top=0;left=0;bottom=0;right=0;pointerEvents=1;" vertex="1" parent="vpoopPvdClBrJ7Ifae0P-102">
          <mxGeometry width="84" height="30" as="geometry">
            <mxRectangle width="84" height="30" as="alternateBounds" />
          </mxGeometry>
        </mxCell>
        <mxCell id="vpoopPvdClBrJ7Ifae0P-104" value="VARCHAR(100)" style="shape=partialRectangle;html=1;whiteSpace=wrap;connectable=0;strokeColor=inherit;overflow=hidden;fillColor=none;top=0;left=0;bottom=0;right=0;pointerEvents=1;" vertex="1" parent="vpoopPvdClBrJ7Ifae0P-102">
          <mxGeometry x="84" width="120" height="30" as="geometry">
            <mxRectangle width="120" height="30" as="alternateBounds" />
          </mxGeometry>
        </mxCell>
        <mxCell id="vpoopPvdClBrJ7Ifae0P-105" value="Category Titile" style="shape=partialRectangle;html=1;whiteSpace=wrap;connectable=0;strokeColor=inherit;overflow=hidden;fillColor=none;top=0;left=0;bottom=0;right=0;pointerEvents=1;" vertex="1" parent="vpoopPvdClBrJ7Ifae0P-102">
          <mxGeometry x="204" width="132" height="30" as="geometry">
            <mxRectangle width="132" height="30" as="alternateBounds" />
          </mxGeometry>
        </mxCell>
        <mxCell id="vpoopPvdClBrJ7Ifae0P-106" value="" style="shape=tableRow;horizontal=0;startSize=0;swimlaneHead=0;swimlaneBody=0;strokeColor=inherit;top=0;left=0;bottom=0;right=0;collapsible=0;dropTarget=0;fillColor=none;points=[[0,0.5],[1,0.5]];portConstraint=eastwest;" vertex="1" parent="vpoopPvdClBrJ7Ifae0P-97">
          <mxGeometry y="120" width="336" height="30" as="geometry" />
        </mxCell>
        <mxCell id="vpoopPvdClBrJ7Ifae0P-107" value="description" style="shape=partialRectangle;html=1;whiteSpace=wrap;connectable=0;strokeColor=inherit;overflow=hidden;fillColor=none;top=0;left=0;bottom=0;right=0;pointerEvents=1;" vertex="1" parent="vpoopPvdClBrJ7Ifae0P-106">
          <mxGeometry width="84" height="30" as="geometry">
            <mxRectangle width="84" height="30" as="alternateBounds" />
          </mxGeometry>
        </mxCell>
        <mxCell id="vpoopPvdClBrJ7Ifae0P-108" value="LONGTEXT" style="shape=partialRectangle;html=1;whiteSpace=wrap;connectable=0;strokeColor=inherit;overflow=hidden;fillColor=none;top=0;left=0;bottom=0;right=0;pointerEvents=1;" vertex="1" parent="vpoopPvdClBrJ7Ifae0P-106">
          <mxGeometry x="84" width="120" height="30" as="geometry">
            <mxRectangle width="120" height="30" as="alternateBounds" />
          </mxGeometry>
        </mxCell>
        <mxCell id="vpoopPvdClBrJ7Ifae0P-109" value="Category description" style="shape=partialRectangle;html=1;whiteSpace=wrap;connectable=0;strokeColor=inherit;overflow=hidden;fillColor=none;top=0;left=0;bottom=0;right=0;pointerEvents=1;" vertex="1" parent="vpoopPvdClBrJ7Ifae0P-106">
          <mxGeometry x="204" width="132" height="30" as="geometry">
            <mxRectangle width="132" height="30" as="alternateBounds" />
          </mxGeometry>
        </mxCell>
        <mxCell id="vpoopPvdClBrJ7Ifae0P-110" value="" style="shape=tableRow;horizontal=0;startSize=0;swimlaneHead=0;swimlaneBody=0;strokeColor=inherit;top=0;left=0;bottom=0;right=0;collapsible=0;dropTarget=0;fillColor=none;points=[[0,0.5],[1,0.5]];portConstraint=eastwest;" vertex="1" parent="vpoopPvdClBrJ7Ifae0P-97">
          <mxGeometry y="150" width="336" height="30" as="geometry" />
        </mxCell>
        <mxCell id="vpoopPvdClBrJ7Ifae0P-111" value="created_at" style="shape=partialRectangle;html=1;whiteSpace=wrap;connectable=0;strokeColor=inherit;overflow=hidden;fillColor=none;top=0;left=0;bottom=0;right=0;pointerEvents=1;" vertex="1" parent="vpoopPvdClBrJ7Ifae0P-110">
          <mxGeometry width="84" height="30" as="geometry">
            <mxRectangle width="84" height="30" as="alternateBounds" />
          </mxGeometry>
        </mxCell>
        <mxCell id="vpoopPvdClBrJ7Ifae0P-112" value="DATETIME" style="shape=partialRectangle;html=1;whiteSpace=wrap;connectable=0;strokeColor=inherit;overflow=hidden;fillColor=none;top=0;left=0;bottom=0;right=0;pointerEvents=1;" vertex="1" parent="vpoopPvdClBrJ7Ifae0P-110">
          <mxGeometry x="84" width="120" height="30" as="geometry">
            <mxRectangle width="120" height="30" as="alternateBounds" />
          </mxGeometry>
        </mxCell>
        <mxCell id="vpoopPvdClBrJ7Ifae0P-113" value="Date created" style="shape=partialRectangle;html=1;whiteSpace=wrap;connectable=0;strokeColor=inherit;overflow=hidden;fillColor=none;top=0;left=0;bottom=0;right=0;pointerEvents=1;" vertex="1" parent="vpoopPvdClBrJ7Ifae0P-110">
          <mxGeometry x="204" width="132" height="30" as="geometry">
            <mxRectangle width="132" height="30" as="alternateBounds" />
          </mxGeometry>
        </mxCell>
        <mxCell id="vpoopPvdClBrJ7Ifae0P-126" value="Educational Topic" style="shape=table;startSize=30;container=1;collapsible=0;childLayout=tableLayout;" vertex="1" parent="1">
          <mxGeometry x="24" y="-900" width="336" height="336" as="geometry" />
        </mxCell>
        <mxCell id="vpoopPvdClBrJ7Ifae0P-167" style="shape=tableRow;horizontal=0;startSize=0;swimlaneHead=0;swimlaneBody=0;strokeColor=inherit;top=0;left=0;bottom=0;right=0;collapsible=0;dropTarget=0;fillColor=none;points=[[0,0.5],[1,0.5]];portConstraint=eastwest;" vertex="1" parent="vpoopPvdClBrJ7Ifae0P-126">
          <mxGeometry y="30" width="336" height="34" as="geometry" />
        </mxCell>
        <mxCell id="vpoopPvdClBrJ7Ifae0P-168" value="Fields" style="shape=partialRectangle;html=1;whiteSpace=wrap;connectable=0;strokeColor=inherit;overflow=hidden;fillColor=none;top=0;left=0;bottom=0;right=0;pointerEvents=1;" vertex="1" parent="vpoopPvdClBrJ7Ifae0P-167">
          <mxGeometry width="84" height="34" as="geometry">
            <mxRectangle width="84" height="34" as="alternateBounds" />
          </mxGeometry>
        </mxCell>
        <mxCell id="vpoopPvdClBrJ7Ifae0P-169" value="Type" style="shape=partialRectangle;html=1;whiteSpace=wrap;connectable=0;strokeColor=inherit;overflow=hidden;fillColor=none;top=0;left=0;bottom=0;right=0;pointerEvents=1;" vertex="1" parent="vpoopPvdClBrJ7Ifae0P-167">
          <mxGeometry x="84" width="120" height="34" as="geometry">
            <mxRectangle width="120" height="34" as="alternateBounds" />
          </mxGeometry>
        </mxCell>
        <mxCell id="vpoopPvdClBrJ7Ifae0P-170" value="Description" style="shape=partialRectangle;html=1;whiteSpace=wrap;connectable=0;strokeColor=inherit;overflow=hidden;fillColor=none;top=0;left=0;bottom=0;right=0;pointerEvents=1;" vertex="1" parent="vpoopPvdClBrJ7Ifae0P-167">
          <mxGeometry x="204" width="132" height="34" as="geometry">
            <mxRectangle width="132" height="34" as="alternateBounds" />
          </mxGeometry>
        </mxCell>
        <mxCell id="vpoopPvdClBrJ7Ifae0P-127" value="" style="shape=tableRow;horizontal=0;startSize=0;swimlaneHead=0;swimlaneBody=0;strokeColor=inherit;top=0;left=0;bottom=0;right=0;collapsible=0;dropTarget=0;fillColor=none;points=[[0,0.5],[1,0.5]];portConstraint=eastwest;" vertex="1" parent="vpoopPvdClBrJ7Ifae0P-126">
          <mxGeometry y="64" width="336" height="34" as="geometry" />
        </mxCell>
        <mxCell id="vpoopPvdClBrJ7Ifae0P-128" value="id" style="shape=partialRectangle;html=1;whiteSpace=wrap;connectable=0;strokeColor=inherit;overflow=hidden;fillColor=none;top=0;left=0;bottom=0;right=0;pointerEvents=1;" vertex="1" parent="vpoopPvdClBrJ7Ifae0P-127">
          <mxGeometry width="84" height="34" as="geometry">
            <mxRectangle width="84" height="34" as="alternateBounds" />
          </mxGeometry>
        </mxCell>
        <mxCell id="vpoopPvdClBrJ7Ifae0P-129" value="BIGINT(19)" style="shape=partialRectangle;html=1;whiteSpace=wrap;connectable=0;strokeColor=inherit;overflow=hidden;fillColor=none;top=0;left=0;bottom=0;right=0;pointerEvents=1;" vertex="1" parent="vpoopPvdClBrJ7Ifae0P-127">
          <mxGeometry x="84" width="120" height="34" as="geometry">
            <mxRectangle width="120" height="34" as="alternateBounds" />
          </mxGeometry>
        </mxCell>
        <mxCell id="vpoopPvdClBrJ7Ifae0P-130" value="Primary Key" style="shape=partialRectangle;html=1;whiteSpace=wrap;connectable=0;strokeColor=inherit;overflow=hidden;fillColor=none;top=0;left=0;bottom=0;right=0;pointerEvents=1;" vertex="1" parent="vpoopPvdClBrJ7Ifae0P-127">
          <mxGeometry x="204" width="132" height="34" as="geometry">
            <mxRectangle width="132" height="34" as="alternateBounds" />
          </mxGeometry>
        </mxCell>
        <mxCell id="vpoopPvdClBrJ7Ifae0P-131" value="" style="shape=tableRow;horizontal=0;startSize=0;swimlaneHead=0;swimlaneBody=0;strokeColor=inherit;top=0;left=0;bottom=0;right=0;collapsible=0;dropTarget=0;fillColor=none;points=[[0,0.5],[1,0.5]];portConstraint=eastwest;" vertex="1" parent="vpoopPvdClBrJ7Ifae0P-126">
          <mxGeometry y="98" width="336" height="33" as="geometry" />
        </mxCell>
        <mxCell id="vpoopPvdClBrJ7Ifae0P-132" value="title" style="shape=partialRectangle;html=1;whiteSpace=wrap;connectable=0;strokeColor=inherit;overflow=hidden;fillColor=none;top=0;left=0;bottom=0;right=0;pointerEvents=1;" vertex="1" parent="vpoopPvdClBrJ7Ifae0P-131">
          <mxGeometry width="84" height="33" as="geometry">
            <mxRectangle width="84" height="33" as="alternateBounds" />
          </mxGeometry>
        </mxCell>
        <mxCell id="vpoopPvdClBrJ7Ifae0P-133" value="VARCHAR(200)" style="shape=partialRectangle;html=1;whiteSpace=wrap;connectable=0;strokeColor=inherit;overflow=hidden;fillColor=none;top=0;left=0;bottom=0;right=0;pointerEvents=1;" vertex="1" parent="vpoopPvdClBrJ7Ifae0P-131">
          <mxGeometry x="84" width="120" height="33" as="geometry">
            <mxRectangle width="120" height="33" as="alternateBounds" />
          </mxGeometry>
        </mxCell>
        <mxCell id="vpoopPvdClBrJ7Ifae0P-134" value="Topic Title" style="shape=partialRectangle;html=1;whiteSpace=wrap;connectable=0;strokeColor=inherit;overflow=hidden;fillColor=none;top=0;left=0;bottom=0;right=0;pointerEvents=1;" vertex="1" parent="vpoopPvdClBrJ7Ifae0P-131">
          <mxGeometry x="204" width="132" height="33" as="geometry">
            <mxRectangle width="132" height="33" as="alternateBounds" />
          </mxGeometry>
        </mxCell>
        <mxCell id="vpoopPvdClBrJ7Ifae0P-135" value="" style="shape=tableRow;horizontal=0;startSize=0;swimlaneHead=0;swimlaneBody=0;strokeColor=inherit;top=0;left=0;bottom=0;right=0;collapsible=0;dropTarget=0;fillColor=none;points=[[0,0.5],[1,0.5]];portConstraint=eastwest;" vertex="1" parent="vpoopPvdClBrJ7Ifae0P-126">
          <mxGeometry y="131" width="336" height="34" as="geometry" />
        </mxCell>
        <mxCell id="vpoopPvdClBrJ7Ifae0P-136" value="content" style="shape=partialRectangle;html=1;whiteSpace=wrap;connectable=0;strokeColor=inherit;overflow=hidden;fillColor=none;top=0;left=0;bottom=0;right=0;pointerEvents=1;" vertex="1" parent="vpoopPvdClBrJ7Ifae0P-135">
          <mxGeometry width="84" height="34" as="geometry">
            <mxRectangle width="84" height="34" as="alternateBounds" />
          </mxGeometry>
        </mxCell>
        <mxCell id="vpoopPvdClBrJ7Ifae0P-137" value="LONGTEXT" style="shape=partialRectangle;html=1;whiteSpace=wrap;connectable=0;strokeColor=inherit;overflow=hidden;fillColor=none;top=0;left=0;bottom=0;right=0;pointerEvents=1;" vertex="1" parent="vpoopPvdClBrJ7Ifae0P-135">
          <mxGeometry x="84" width="120" height="34" as="geometry">
            <mxRectangle width="120" height="34" as="alternateBounds" />
          </mxGeometry>
        </mxCell>
        <mxCell id="vpoopPvdClBrJ7Ifae0P-138" value="Topic content" style="shape=partialRectangle;html=1;whiteSpace=wrap;connectable=0;strokeColor=inherit;overflow=hidden;fillColor=none;top=0;left=0;bottom=0;right=0;pointerEvents=1;" vertex="1" parent="vpoopPvdClBrJ7Ifae0P-135">
          <mxGeometry x="204" width="132" height="34" as="geometry">
            <mxRectangle width="132" height="34" as="alternateBounds" />
          </mxGeometry>
        </mxCell>
        <mxCell id="vpoopPvdClBrJ7Ifae0P-139" value="" style="shape=tableRow;horizontal=0;startSize=0;swimlaneHead=0;swimlaneBody=0;strokeColor=inherit;top=0;left=0;bottom=0;right=0;collapsible=0;dropTarget=0;fillColor=none;points=[[0,0.5],[1,0.5]];portConstraint=eastwest;" vertex="1" parent="vpoopPvdClBrJ7Ifae0P-126">
          <mxGeometry y="165" width="336" height="36" as="geometry" />
        </mxCell>
        <mxCell id="vpoopPvdClBrJ7Ifae0P-140" value="is_published" style="shape=partialRectangle;html=1;whiteSpace=wrap;connectable=0;strokeColor=inherit;overflow=hidden;fillColor=none;top=0;left=0;bottom=0;right=0;pointerEvents=1;" vertex="1" parent="vpoopPvdClBrJ7Ifae0P-139">
          <mxGeometry width="84" height="36" as="geometry">
            <mxRectangle width="84" height="36" as="alternateBounds" />
          </mxGeometry>
        </mxCell>
        <mxCell id="vpoopPvdClBrJ7Ifae0P-141" value="TINYINT(1)" style="shape=partialRectangle;html=1;whiteSpace=wrap;connectable=0;strokeColor=inherit;overflow=hidden;fillColor=none;top=0;left=0;bottom=0;right=0;pointerEvents=1;" vertex="1" parent="vpoopPvdClBrJ7Ifae0P-139">
          <mxGeometry x="84" width="120" height="36" as="geometry">
            <mxRectangle width="120" height="36" as="alternateBounds" />
          </mxGeometry>
        </mxCell>
        <mxCell id="vpoopPvdClBrJ7Ifae0P-142" value="Publish status" style="shape=partialRectangle;html=1;whiteSpace=wrap;connectable=0;strokeColor=inherit;overflow=hidden;fillColor=none;top=0;left=0;bottom=0;right=0;pointerEvents=1;" vertex="1" parent="vpoopPvdClBrJ7Ifae0P-139">
          <mxGeometry x="204" width="132" height="36" as="geometry">
            <mxRectangle width="132" height="36" as="alternateBounds" />
          </mxGeometry>
        </mxCell>
        <mxCell id="vpoopPvdClBrJ7Ifae0P-143" value="" style="shape=tableRow;horizontal=0;startSize=0;swimlaneHead=0;swimlaneBody=0;strokeColor=inherit;top=0;left=0;bottom=0;right=0;collapsible=0;dropTarget=0;fillColor=none;points=[[0,0.5],[1,0.5]];portConstraint=eastwest;" vertex="1" parent="vpoopPvdClBrJ7Ifae0P-126">
          <mxGeometry y="201" width="336" height="34" as="geometry" />
        </mxCell>
        <mxCell id="vpoopPvdClBrJ7Ifae0P-144" value="created_at" style="shape=partialRectangle;html=1;whiteSpace=wrap;connectable=0;strokeColor=inherit;overflow=hidden;fillColor=none;top=0;left=0;bottom=0;right=0;pointerEvents=1;" vertex="1" parent="vpoopPvdClBrJ7Ifae0P-143">
          <mxGeometry width="84" height="34" as="geometry">
            <mxRectangle width="84" height="34" as="alternateBounds" />
          </mxGeometry>
        </mxCell>
        <mxCell id="vpoopPvdClBrJ7Ifae0P-145" value="DATETIME(6)" style="shape=partialRectangle;html=1;whiteSpace=wrap;connectable=0;strokeColor=inherit;overflow=hidden;fillColor=none;top=0;left=0;bottom=0;right=0;pointerEvents=1;" vertex="1" parent="vpoopPvdClBrJ7Ifae0P-143">
          <mxGeometry x="84" width="120" height="34" as="geometry">
            <mxRectangle width="120" height="34" as="alternateBounds" />
          </mxGeometry>
        </mxCell>
        <mxCell id="vpoopPvdClBrJ7Ifae0P-146" value="Date created" style="shape=partialRectangle;html=1;whiteSpace=wrap;connectable=0;strokeColor=inherit;overflow=hidden;fillColor=none;top=0;left=0;bottom=0;right=0;pointerEvents=1;" vertex="1" parent="vpoopPvdClBrJ7Ifae0P-143">
          <mxGeometry x="204" width="132" height="34" as="geometry">
            <mxRectangle width="132" height="34" as="alternateBounds" />
          </mxGeometry>
        </mxCell>
        <mxCell id="vpoopPvdClBrJ7Ifae0P-147" value="" style="shape=tableRow;horizontal=0;startSize=0;swimlaneHead=0;swimlaneBody=0;strokeColor=inherit;top=0;left=0;bottom=0;right=0;collapsible=0;dropTarget=0;fillColor=none;points=[[0,0.5],[1,0.5]];portConstraint=eastwest;" vertex="1" parent="vpoopPvdClBrJ7Ifae0P-126">
          <mxGeometry y="235" width="336" height="33" as="geometry" />
        </mxCell>
        <mxCell id="vpoopPvdClBrJ7Ifae0P-148" value="updated_at" style="shape=partialRectangle;html=1;whiteSpace=wrap;connectable=0;strokeColor=inherit;overflow=hidden;fillColor=none;top=0;left=0;bottom=0;right=0;pointerEvents=1;" vertex="1" parent="vpoopPvdClBrJ7Ifae0P-147">
          <mxGeometry width="84" height="33" as="geometry">
            <mxRectangle width="84" height="33" as="alternateBounds" />
          </mxGeometry>
        </mxCell>
        <mxCell id="vpoopPvdClBrJ7Ifae0P-149" value="DATETIME(6)" style="shape=partialRectangle;html=1;whiteSpace=wrap;connectable=0;strokeColor=inherit;overflow=hidden;fillColor=none;top=0;left=0;bottom=0;right=0;pointerEvents=1;" vertex="1" parent="vpoopPvdClBrJ7Ifae0P-147">
          <mxGeometry x="84" width="120" height="33" as="geometry">
            <mxRectangle width="120" height="33" as="alternateBounds" />
          </mxGeometry>
        </mxCell>
        <mxCell id="vpoopPvdClBrJ7Ifae0P-150" value="Date Updated" style="shape=partialRectangle;html=1;whiteSpace=wrap;connectable=0;strokeColor=inherit;overflow=hidden;fillColor=none;top=0;left=0;bottom=0;right=0;pointerEvents=1;" vertex="1" parent="vpoopPvdClBrJ7Ifae0P-147">
          <mxGeometry x="204" width="132" height="33" as="geometry">
            <mxRectangle width="132" height="33" as="alternateBounds" />
          </mxGeometry>
        </mxCell>
        <mxCell id="vpoopPvdClBrJ7Ifae0P-151" value="" style="shape=tableRow;horizontal=0;startSize=0;swimlaneHead=0;swimlaneBody=0;strokeColor=inherit;top=0;left=0;bottom=0;right=0;collapsible=0;dropTarget=0;fillColor=none;points=[[0,0.5],[1,0.5]];portConstraint=eastwest;" vertex="1" parent="vpoopPvdClBrJ7Ifae0P-126">
          <mxGeometry y="268" width="336" height="34" as="geometry" />
        </mxCell>
        <mxCell id="vpoopPvdClBrJ7Ifae0P-152" value="category_id" style="shape=partialRectangle;html=1;whiteSpace=wrap;connectable=0;strokeColor=inherit;overflow=hidden;fillColor=none;top=0;left=0;bottom=0;right=0;pointerEvents=1;" vertex="1" parent="vpoopPvdClBrJ7Ifae0P-151">
          <mxGeometry width="84" height="34" as="geometry">
            <mxRectangle width="84" height="34" as="alternateBounds" />
          </mxGeometry>
        </mxCell>
        <mxCell id="vpoopPvdClBrJ7Ifae0P-153" value="BIGINT(19)" style="shape=partialRectangle;html=1;whiteSpace=wrap;connectable=0;strokeColor=inherit;overflow=hidden;fillColor=none;top=0;left=0;bottom=0;right=0;pointerEvents=1;" vertex="1" parent="vpoopPvdClBrJ7Ifae0P-151">
          <mxGeometry x="84" width="120" height="34" as="geometry">
            <mxRectangle width="120" height="34" as="alternateBounds" />
          </mxGeometry>
        </mxCell>
        <mxCell id="vpoopPvdClBrJ7Ifae0P-154" value="Reference to category table" style="shape=partialRectangle;html=1;whiteSpace=wrap;connectable=0;strokeColor=inherit;overflow=hidden;fillColor=none;top=0;left=0;bottom=0;right=0;pointerEvents=1;" vertex="1" parent="vpoopPvdClBrJ7Ifae0P-151">
          <mxGeometry x="204" width="132" height="34" as="geometry">
            <mxRectangle width="132" height="34" as="alternateBounds" />
          </mxGeometry>
        </mxCell>
        <mxCell id="vpoopPvdClBrJ7Ifae0P-155" value="" style="shape=tableRow;horizontal=0;startSize=0;swimlaneHead=0;swimlaneBody=0;strokeColor=inherit;top=0;left=0;bottom=0;right=0;collapsible=0;dropTarget=0;fillColor=none;points=[[0,0.5],[1,0.5]];portConstraint=eastwest;" vertex="1" parent="vpoopPvdClBrJ7Ifae0P-126">
          <mxGeometry y="302" width="336" height="34" as="geometry" />
        </mxCell>
        <mxCell id="vpoopPvdClBrJ7Ifae0P-156" value="created_by_id" style="shape=partialRectangle;html=1;whiteSpace=wrap;connectable=0;strokeColor=inherit;overflow=hidden;fillColor=none;top=0;left=0;bottom=0;right=0;pointerEvents=1;" vertex="1" parent="vpoopPvdClBrJ7Ifae0P-155">
          <mxGeometry width="84" height="34" as="geometry">
            <mxRectangle width="84" height="34" as="alternateBounds" />
          </mxGeometry>
        </mxCell>
        <mxCell id="vpoopPvdClBrJ7Ifae0P-157" value="INT(10)" style="shape=partialRectangle;html=1;whiteSpace=wrap;connectable=0;strokeColor=inherit;overflow=hidden;fillColor=none;top=0;left=0;bottom=0;right=0;pointerEvents=1;" vertex="1" parent="vpoopPvdClBrJ7Ifae0P-155">
          <mxGeometry x="84" width="120" height="34" as="geometry">
            <mxRectangle width="120" height="34" as="alternateBounds" />
          </mxGeometry>
        </mxCell>
        <mxCell id="vpoopPvdClBrJ7Ifae0P-158" value="Reference to user" style="shape=partialRectangle;html=1;whiteSpace=wrap;connectable=0;strokeColor=inherit;overflow=hidden;fillColor=none;top=0;left=0;bottom=0;right=0;pointerEvents=1;" vertex="1" parent="vpoopPvdClBrJ7Ifae0P-155">
          <mxGeometry x="204" width="132" height="34" as="geometry">
            <mxRectangle width="132" height="34" as="alternateBounds" />
          </mxGeometry>
        </mxCell>
        <mxCell id="vpoopPvdClBrJ7Ifae0P-171" value="Quiz" style="shape=table;startSize=30;container=1;collapsible=0;childLayout=tableLayout;" vertex="1" parent="1">
          <mxGeometry x="425" y="-1080" width="355" height="430" as="geometry" />
        </mxCell>
        <mxCell id="vpoopPvdClBrJ7Ifae0P-212" style="shape=tableRow;horizontal=0;startSize=0;swimlaneHead=0;swimlaneBody=0;strokeColor=inherit;top=0;left=0;bottom=0;right=0;collapsible=0;dropTarget=0;fillColor=none;points=[[0,0.5],[1,0.5]];portConstraint=eastwest;" vertex="1" parent="vpoopPvdClBrJ7Ifae0P-171">
          <mxGeometry y="30" width="355" height="40" as="geometry" />
        </mxCell>
        <mxCell id="vpoopPvdClBrJ7Ifae0P-213" value="Fields" style="shape=partialRectangle;html=1;whiteSpace=wrap;connectable=0;strokeColor=inherit;overflow=hidden;fillColor=none;top=0;left=0;bottom=0;right=0;pointerEvents=1;" vertex="1" parent="vpoopPvdClBrJ7Ifae0P-212">
          <mxGeometry width="118" height="40" as="geometry">
            <mxRectangle width="118" height="40" as="alternateBounds" />
          </mxGeometry>
        </mxCell>
        <mxCell id="vpoopPvdClBrJ7Ifae0P-214" value="Type" style="shape=partialRectangle;html=1;whiteSpace=wrap;connectable=0;strokeColor=inherit;overflow=hidden;fillColor=none;top=0;left=0;bottom=0;right=0;pointerEvents=1;" vertex="1" parent="vpoopPvdClBrJ7Ifae0P-212">
          <mxGeometry x="118" width="119" height="40" as="geometry">
            <mxRectangle width="119" height="40" as="alternateBounds" />
          </mxGeometry>
        </mxCell>
        <mxCell id="vpoopPvdClBrJ7Ifae0P-215" value="Description" style="shape=partialRectangle;html=1;whiteSpace=wrap;connectable=0;strokeColor=inherit;overflow=hidden;fillColor=none;top=0;left=0;bottom=0;right=0;pointerEvents=1;" vertex="1" parent="vpoopPvdClBrJ7Ifae0P-212">
          <mxGeometry x="237" width="118" height="40" as="geometry">
            <mxRectangle width="118" height="40" as="alternateBounds" />
          </mxGeometry>
        </mxCell>
        <mxCell id="vpoopPvdClBrJ7Ifae0P-172" value="" style="shape=tableRow;horizontal=0;startSize=0;swimlaneHead=0;swimlaneBody=0;strokeColor=inherit;top=0;left=0;bottom=0;right=0;collapsible=0;dropTarget=0;fillColor=none;points=[[0,0.5],[1,0.5]];portConstraint=eastwest;" vertex="1" parent="vpoopPvdClBrJ7Ifae0P-171">
          <mxGeometry y="70" width="355" height="40" as="geometry" />
        </mxCell>
        <mxCell id="vpoopPvdClBrJ7Ifae0P-173" value="id" style="shape=partialRectangle;html=1;whiteSpace=wrap;connectable=0;strokeColor=inherit;overflow=hidden;fillColor=none;top=0;left=0;bottom=0;right=0;pointerEvents=1;" vertex="1" parent="vpoopPvdClBrJ7Ifae0P-172">
          <mxGeometry width="118" height="40" as="geometry">
            <mxRectangle width="118" height="40" as="alternateBounds" />
          </mxGeometry>
        </mxCell>
        <mxCell id="vpoopPvdClBrJ7Ifae0P-174" value="BIGINT(19)" style="shape=partialRectangle;html=1;whiteSpace=wrap;connectable=0;strokeColor=inherit;overflow=hidden;fillColor=none;top=0;left=0;bottom=0;right=0;pointerEvents=1;" vertex="1" parent="vpoopPvdClBrJ7Ifae0P-172">
          <mxGeometry x="118" width="119" height="40" as="geometry">
            <mxRectangle width="119" height="40" as="alternateBounds" />
          </mxGeometry>
        </mxCell>
        <mxCell id="vpoopPvdClBrJ7Ifae0P-175" value="Primary Key" style="shape=partialRectangle;html=1;whiteSpace=wrap;connectable=0;strokeColor=inherit;overflow=hidden;fillColor=none;top=0;left=0;bottom=0;right=0;pointerEvents=1;" vertex="1" parent="vpoopPvdClBrJ7Ifae0P-172">
          <mxGeometry x="237" width="118" height="40" as="geometry">
            <mxRectangle width="118" height="40" as="alternateBounds" />
          </mxGeometry>
        </mxCell>
        <mxCell id="vpoopPvdClBrJ7Ifae0P-176" value="" style="shape=tableRow;horizontal=0;startSize=0;swimlaneHead=0;swimlaneBody=0;strokeColor=inherit;top=0;left=0;bottom=0;right=0;collapsible=0;dropTarget=0;fillColor=none;points=[[0,0.5],[1,0.5]];portConstraint=eastwest;" vertex="1" parent="vpoopPvdClBrJ7Ifae0P-171">
          <mxGeometry y="110" width="355" height="40" as="geometry" />
        </mxCell>
        <mxCell id="vpoopPvdClBrJ7Ifae0P-177" value="title" style="shape=partialRectangle;html=1;whiteSpace=wrap;connectable=0;strokeColor=inherit;overflow=hidden;fillColor=none;top=0;left=0;bottom=0;right=0;pointerEvents=1;" vertex="1" parent="vpoopPvdClBrJ7Ifae0P-176">
          <mxGeometry width="118" height="40" as="geometry">
            <mxRectangle width="118" height="40" as="alternateBounds" />
          </mxGeometry>
        </mxCell>
        <mxCell id="vpoopPvdClBrJ7Ifae0P-178" value="VARCHAR(200)" style="shape=partialRectangle;html=1;whiteSpace=wrap;connectable=0;strokeColor=inherit;overflow=hidden;fillColor=none;top=0;left=0;bottom=0;right=0;pointerEvents=1;" vertex="1" parent="vpoopPvdClBrJ7Ifae0P-176">
          <mxGeometry x="118" width="119" height="40" as="geometry">
            <mxRectangle width="119" height="40" as="alternateBounds" />
          </mxGeometry>
        </mxCell>
        <mxCell id="vpoopPvdClBrJ7Ifae0P-179" value="Quiz titiel" style="shape=partialRectangle;html=1;whiteSpace=wrap;connectable=0;strokeColor=inherit;overflow=hidden;fillColor=none;top=0;left=0;bottom=0;right=0;pointerEvents=1;" vertex="1" parent="vpoopPvdClBrJ7Ifae0P-176">
          <mxGeometry x="237" width="118" height="40" as="geometry">
            <mxRectangle width="118" height="40" as="alternateBounds" />
          </mxGeometry>
        </mxCell>
        <mxCell id="vpoopPvdClBrJ7Ifae0P-180" value="" style="shape=tableRow;horizontal=0;startSize=0;swimlaneHead=0;swimlaneBody=0;strokeColor=inherit;top=0;left=0;bottom=0;right=0;collapsible=0;dropTarget=0;fillColor=none;points=[[0,0.5],[1,0.5]];portConstraint=eastwest;" vertex="1" parent="vpoopPvdClBrJ7Ifae0P-171">
          <mxGeometry y="150" width="355" height="40" as="geometry" />
        </mxCell>
        <mxCell id="vpoopPvdClBrJ7Ifae0P-181" value="description" style="shape=partialRectangle;html=1;whiteSpace=wrap;connectable=0;strokeColor=inherit;overflow=hidden;fillColor=none;top=0;left=0;bottom=0;right=0;pointerEvents=1;" vertex="1" parent="vpoopPvdClBrJ7Ifae0P-180">
          <mxGeometry width="118" height="40" as="geometry">
            <mxRectangle width="118" height="40" as="alternateBounds" />
          </mxGeometry>
        </mxCell>
        <mxCell id="vpoopPvdClBrJ7Ifae0P-182" value="LONGTEXT" style="shape=partialRectangle;html=1;whiteSpace=wrap;connectable=0;strokeColor=inherit;overflow=hidden;fillColor=none;top=0;left=0;bottom=0;right=0;pointerEvents=1;" vertex="1" parent="vpoopPvdClBrJ7Ifae0P-180">
          <mxGeometry x="118" width="119" height="40" as="geometry">
            <mxRectangle width="119" height="40" as="alternateBounds" />
          </mxGeometry>
        </mxCell>
        <mxCell id="vpoopPvdClBrJ7Ifae0P-183" value="Quiz description" style="shape=partialRectangle;html=1;whiteSpace=wrap;connectable=0;strokeColor=inherit;overflow=hidden;fillColor=none;top=0;left=0;bottom=0;right=0;pointerEvents=1;" vertex="1" parent="vpoopPvdClBrJ7Ifae0P-180">
          <mxGeometry x="237" width="118" height="40" as="geometry">
            <mxRectangle width="118" height="40" as="alternateBounds" />
          </mxGeometry>
        </mxCell>
        <mxCell id="vpoopPvdClBrJ7Ifae0P-184" value="" style="shape=tableRow;horizontal=0;startSize=0;swimlaneHead=0;swimlaneBody=0;strokeColor=inherit;top=0;left=0;bottom=0;right=0;collapsible=0;dropTarget=0;fillColor=none;points=[[0,0.5],[1,0.5]];portConstraint=eastwest;" vertex="1" parent="vpoopPvdClBrJ7Ifae0P-171">
          <mxGeometry y="190" width="355" height="40" as="geometry" />
        </mxCell>
        <mxCell id="vpoopPvdClBrJ7Ifae0P-185" value="passing_score" style="shape=partialRectangle;html=1;whiteSpace=wrap;connectable=0;strokeColor=inherit;overflow=hidden;fillColor=none;top=0;left=0;bottom=0;right=0;pointerEvents=1;" vertex="1" parent="vpoopPvdClBrJ7Ifae0P-184">
          <mxGeometry width="118" height="40" as="geometry">
            <mxRectangle width="118" height="40" as="alternateBounds" />
          </mxGeometry>
        </mxCell>
        <mxCell id="vpoopPvdClBrJ7Ifae0P-186" value="INT(10)" style="shape=partialRectangle;html=1;whiteSpace=wrap;connectable=0;strokeColor=inherit;overflow=hidden;fillColor=none;top=0;left=0;bottom=0;right=0;pointerEvents=1;" vertex="1" parent="vpoopPvdClBrJ7Ifae0P-184">
          <mxGeometry x="118" width="119" height="40" as="geometry">
            <mxRectangle width="119" height="40" as="alternateBounds" />
          </mxGeometry>
        </mxCell>
        <mxCell id="vpoopPvdClBrJ7Ifae0P-187" value="Quiz passing score" style="shape=partialRectangle;html=1;whiteSpace=wrap;connectable=0;strokeColor=inherit;overflow=hidden;fillColor=none;top=0;left=0;bottom=0;right=0;pointerEvents=1;" vertex="1" parent="vpoopPvdClBrJ7Ifae0P-184">
          <mxGeometry x="237" width="118" height="40" as="geometry">
            <mxRectangle width="118" height="40" as="alternateBounds" />
          </mxGeometry>
        </mxCell>
        <mxCell id="vpoopPvdClBrJ7Ifae0P-188" value="" style="shape=tableRow;horizontal=0;startSize=0;swimlaneHead=0;swimlaneBody=0;strokeColor=inherit;top=0;left=0;bottom=0;right=0;collapsible=0;dropTarget=0;fillColor=none;points=[[0,0.5],[1,0.5]];portConstraint=eastwest;" vertex="1" parent="vpoopPvdClBrJ7Ifae0P-171">
          <mxGeometry y="230" width="355" height="40" as="geometry" />
        </mxCell>
        <mxCell id="vpoopPvdClBrJ7Ifae0P-189" value="is_published" style="shape=partialRectangle;html=1;whiteSpace=wrap;connectable=0;strokeColor=inherit;overflow=hidden;fillColor=none;top=0;left=0;bottom=0;right=0;pointerEvents=1;" vertex="1" parent="vpoopPvdClBrJ7Ifae0P-188">
          <mxGeometry width="118" height="40" as="geometry">
            <mxRectangle width="118" height="40" as="alternateBounds" />
          </mxGeometry>
        </mxCell>
        <mxCell id="vpoopPvdClBrJ7Ifae0P-190" value="TINYINT(1)" style="shape=partialRectangle;html=1;whiteSpace=wrap;connectable=0;strokeColor=inherit;overflow=hidden;fillColor=none;top=0;left=0;bottom=0;right=0;pointerEvents=1;" vertex="1" parent="vpoopPvdClBrJ7Ifae0P-188">
          <mxGeometry x="118" width="119" height="40" as="geometry">
            <mxRectangle width="119" height="40" as="alternateBounds" />
          </mxGeometry>
        </mxCell>
        <mxCell id="vpoopPvdClBrJ7Ifae0P-191" value="publish date" style="shape=partialRectangle;html=1;whiteSpace=wrap;connectable=0;strokeColor=inherit;overflow=hidden;fillColor=none;top=0;left=0;bottom=0;right=0;pointerEvents=1;" vertex="1" parent="vpoopPvdClBrJ7Ifae0P-188">
          <mxGeometry x="237" width="118" height="40" as="geometry">
            <mxRectangle width="118" height="40" as="alternateBounds" />
          </mxGeometry>
        </mxCell>
        <mxCell id="vpoopPvdClBrJ7Ifae0P-192" value="" style="shape=tableRow;horizontal=0;startSize=0;swimlaneHead=0;swimlaneBody=0;strokeColor=inherit;top=0;left=0;bottom=0;right=0;collapsible=0;dropTarget=0;fillColor=none;points=[[0,0.5],[1,0.5]];portConstraint=eastwest;" vertex="1" parent="vpoopPvdClBrJ7Ifae0P-171">
          <mxGeometry y="270" width="355" height="40" as="geometry" />
        </mxCell>
        <mxCell id="vpoopPvdClBrJ7Ifae0P-193" value="created_at" style="shape=partialRectangle;html=1;whiteSpace=wrap;connectable=0;strokeColor=inherit;overflow=hidden;fillColor=none;top=0;left=0;bottom=0;right=0;pointerEvents=1;" vertex="1" parent="vpoopPvdClBrJ7Ifae0P-192">
          <mxGeometry width="118" height="40" as="geometry">
            <mxRectangle width="118" height="40" as="alternateBounds" />
          </mxGeometry>
        </mxCell>
        <mxCell id="vpoopPvdClBrJ7Ifae0P-194" value="DATETIME(6)" style="shape=partialRectangle;html=1;whiteSpace=wrap;connectable=0;strokeColor=inherit;overflow=hidden;fillColor=none;top=0;left=0;bottom=0;right=0;pointerEvents=1;" vertex="1" parent="vpoopPvdClBrJ7Ifae0P-192">
          <mxGeometry x="118" width="119" height="40" as="geometry">
            <mxRectangle width="119" height="40" as="alternateBounds" />
          </mxGeometry>
        </mxCell>
        <mxCell id="vpoopPvdClBrJ7Ifae0P-195" value="date created" style="shape=partialRectangle;html=1;whiteSpace=wrap;connectable=0;strokeColor=inherit;overflow=hidden;fillColor=none;top=0;left=0;bottom=0;right=0;pointerEvents=1;" vertex="1" parent="vpoopPvdClBrJ7Ifae0P-192">
          <mxGeometry x="237" width="118" height="40" as="geometry">
            <mxRectangle width="118" height="40" as="alternateBounds" />
          </mxGeometry>
        </mxCell>
        <mxCell id="vpoopPvdClBrJ7Ifae0P-196" value="" style="shape=tableRow;horizontal=0;startSize=0;swimlaneHead=0;swimlaneBody=0;strokeColor=inherit;top=0;left=0;bottom=0;right=0;collapsible=0;dropTarget=0;fillColor=none;points=[[0,0.5],[1,0.5]];portConstraint=eastwest;" vertex="1" parent="vpoopPvdClBrJ7Ifae0P-171">
          <mxGeometry y="310" width="355" height="40" as="geometry" />
        </mxCell>
        <mxCell id="vpoopPvdClBrJ7Ifae0P-197" value="updated_at" style="shape=partialRectangle;html=1;whiteSpace=wrap;connectable=0;strokeColor=inherit;overflow=hidden;fillColor=none;top=0;left=0;bottom=0;right=0;pointerEvents=1;" vertex="1" parent="vpoopPvdClBrJ7Ifae0P-196">
          <mxGeometry width="118" height="40" as="geometry">
            <mxRectangle width="118" height="40" as="alternateBounds" />
          </mxGeometry>
        </mxCell>
        <mxCell id="vpoopPvdClBrJ7Ifae0P-198" value="DATETIME(6)" style="shape=partialRectangle;html=1;whiteSpace=wrap;connectable=0;strokeColor=inherit;overflow=hidden;fillColor=none;top=0;left=0;bottom=0;right=0;pointerEvents=1;" vertex="1" parent="vpoopPvdClBrJ7Ifae0P-196">
          <mxGeometry x="118" width="119" height="40" as="geometry">
            <mxRectangle width="119" height="40" as="alternateBounds" />
          </mxGeometry>
        </mxCell>
        <mxCell id="vpoopPvdClBrJ7Ifae0P-199" value="dated updated" style="shape=partialRectangle;html=1;whiteSpace=wrap;connectable=0;strokeColor=inherit;overflow=hidden;fillColor=none;top=0;left=0;bottom=0;right=0;pointerEvents=1;" vertex="1" parent="vpoopPvdClBrJ7Ifae0P-196">
          <mxGeometry x="237" width="118" height="40" as="geometry">
            <mxRectangle width="118" height="40" as="alternateBounds" />
          </mxGeometry>
        </mxCell>
        <mxCell id="vpoopPvdClBrJ7Ifae0P-200" value="" style="shape=tableRow;horizontal=0;startSize=0;swimlaneHead=0;swimlaneBody=0;strokeColor=inherit;top=0;left=0;bottom=0;right=0;collapsible=0;dropTarget=0;fillColor=none;points=[[0,0.5],[1,0.5]];portConstraint=eastwest;" vertex="1" parent="vpoopPvdClBrJ7Ifae0P-171">
          <mxGeometry y="350" width="355" height="40" as="geometry" />
        </mxCell>
        <mxCell id="vpoopPvdClBrJ7Ifae0P-201" value="created_by_id" style="shape=partialRectangle;html=1;whiteSpace=wrap;connectable=0;strokeColor=inherit;overflow=hidden;fillColor=none;top=0;left=0;bottom=0;right=0;pointerEvents=1;" vertex="1" parent="vpoopPvdClBrJ7Ifae0P-200">
          <mxGeometry width="118" height="40" as="geometry">
            <mxRectangle width="118" height="40" as="alternateBounds" />
          </mxGeometry>
        </mxCell>
        <mxCell id="vpoopPvdClBrJ7Ifae0P-202" value="INT(10)" style="shape=partialRectangle;html=1;whiteSpace=wrap;connectable=0;strokeColor=inherit;overflow=hidden;fillColor=none;top=0;left=0;bottom=0;right=0;pointerEvents=1;" vertex="1" parent="vpoopPvdClBrJ7Ifae0P-200">
          <mxGeometry x="118" width="119" height="40" as="geometry">
            <mxRectangle width="119" height="40" as="alternateBounds" />
          </mxGeometry>
        </mxCell>
        <mxCell id="vpoopPvdClBrJ7Ifae0P-203" value="Reference to user" style="shape=partialRectangle;html=1;whiteSpace=wrap;connectable=0;strokeColor=inherit;overflow=hidden;fillColor=none;top=0;left=0;bottom=0;right=0;pointerEvents=1;" vertex="1" parent="vpoopPvdClBrJ7Ifae0P-200">
          <mxGeometry x="237" width="118" height="40" as="geometry">
            <mxRectangle width="118" height="40" as="alternateBounds" />
          </mxGeometry>
        </mxCell>
        <mxCell id="vpoopPvdClBrJ7Ifae0P-204" value="" style="shape=tableRow;horizontal=0;startSize=0;swimlaneHead=0;swimlaneBody=0;strokeColor=inherit;top=0;left=0;bottom=0;right=0;collapsible=0;dropTarget=0;fillColor=none;points=[[0,0.5],[1,0.5]];portConstraint=eastwest;" vertex="1" parent="vpoopPvdClBrJ7Ifae0P-171">
          <mxGeometry y="390" width="355" height="40" as="geometry" />
        </mxCell>
        <mxCell id="vpoopPvdClBrJ7Ifae0P-205" value="topic_id" style="shape=partialRectangle;html=1;whiteSpace=wrap;connectable=0;strokeColor=inherit;overflow=hidden;fillColor=none;top=0;left=0;bottom=0;right=0;pointerEvents=1;" vertex="1" parent="vpoopPvdClBrJ7Ifae0P-204">
          <mxGeometry width="118" height="40" as="geometry">
            <mxRectangle width="118" height="40" as="alternateBounds" />
          </mxGeometry>
        </mxCell>
        <mxCell id="vpoopPvdClBrJ7Ifae0P-206" value="BIGINT(19)" style="shape=partialRectangle;html=1;whiteSpace=wrap;connectable=0;strokeColor=inherit;overflow=hidden;fillColor=none;top=0;left=0;bottom=0;right=0;pointerEvents=1;" vertex="1" parent="vpoopPvdClBrJ7Ifae0P-204">
          <mxGeometry x="118" width="119" height="40" as="geometry">
            <mxRectangle width="119" height="40" as="alternateBounds" />
          </mxGeometry>
        </mxCell>
        <mxCell id="vpoopPvdClBrJ7Ifae0P-207" value="reference to educational topic" style="shape=partialRectangle;html=1;whiteSpace=wrap;connectable=0;strokeColor=inherit;overflow=hidden;fillColor=none;top=0;left=0;bottom=0;right=0;pointerEvents=1;" vertex="1" parent="vpoopPvdClBrJ7Ifae0P-204">
          <mxGeometry x="237" width="118" height="40" as="geometry">
            <mxRectangle width="118" height="40" as="alternateBounds" />
          </mxGeometry>
        </mxCell>
        <mxCell id="vpoopPvdClBrJ7Ifae0P-235" value="Quiz Answer" style="shape=table;startSize=30;container=1;collapsible=0;childLayout=tableLayout;" vertex="1" parent="1">
          <mxGeometry x="425" y="-624" width="355" height="270" as="geometry" />
        </mxCell>
        <mxCell id="vpoopPvdClBrJ7Ifae0P-236" value="" style="shape=tableRow;horizontal=0;startSize=0;swimlaneHead=0;swimlaneBody=0;strokeColor=inherit;top=0;left=0;bottom=0;right=0;collapsible=0;dropTarget=0;fillColor=none;points=[[0,0.5],[1,0.5]];portConstraint=eastwest;" vertex="1" parent="vpoopPvdClBrJ7Ifae0P-235">
          <mxGeometry y="30" width="355" height="40" as="geometry" />
        </mxCell>
        <mxCell id="vpoopPvdClBrJ7Ifae0P-237" value="Fields" style="shape=partialRectangle;html=1;whiteSpace=wrap;connectable=0;strokeColor=inherit;overflow=hidden;fillColor=none;top=0;left=0;bottom=0;right=0;pointerEvents=1;" vertex="1" parent="vpoopPvdClBrJ7Ifae0P-236">
          <mxGeometry width="118" height="40" as="geometry">
            <mxRectangle width="118" height="40" as="alternateBounds" />
          </mxGeometry>
        </mxCell>
        <mxCell id="vpoopPvdClBrJ7Ifae0P-238" value="Type" style="shape=partialRectangle;html=1;whiteSpace=wrap;connectable=0;strokeColor=inherit;overflow=hidden;fillColor=none;top=0;left=0;bottom=0;right=0;pointerEvents=1;" vertex="1" parent="vpoopPvdClBrJ7Ifae0P-236">
          <mxGeometry x="118" width="119" height="40" as="geometry">
            <mxRectangle width="119" height="40" as="alternateBounds" />
          </mxGeometry>
        </mxCell>
        <mxCell id="vpoopPvdClBrJ7Ifae0P-239" value="Description" style="shape=partialRectangle;html=1;whiteSpace=wrap;connectable=0;strokeColor=inherit;overflow=hidden;fillColor=none;top=0;left=0;bottom=0;right=0;pointerEvents=1;" vertex="1" parent="vpoopPvdClBrJ7Ifae0P-236">
          <mxGeometry x="237" width="118" height="40" as="geometry">
            <mxRectangle width="118" height="40" as="alternateBounds" />
          </mxGeometry>
        </mxCell>
        <mxCell id="vpoopPvdClBrJ7Ifae0P-240" value="" style="shape=tableRow;horizontal=0;startSize=0;swimlaneHead=0;swimlaneBody=0;strokeColor=inherit;top=0;left=0;bottom=0;right=0;collapsible=0;dropTarget=0;fillColor=none;points=[[0,0.5],[1,0.5]];portConstraint=eastwest;" vertex="1" parent="vpoopPvdClBrJ7Ifae0P-235">
          <mxGeometry y="70" width="355" height="40" as="geometry" />
        </mxCell>
        <mxCell id="vpoopPvdClBrJ7Ifae0P-241" value="id" style="shape=partialRectangle;html=1;whiteSpace=wrap;connectable=0;strokeColor=inherit;overflow=hidden;fillColor=none;top=0;left=0;bottom=0;right=0;pointerEvents=1;" vertex="1" parent="vpoopPvdClBrJ7Ifae0P-240">
          <mxGeometry width="118" height="40" as="geometry">
            <mxRectangle width="118" height="40" as="alternateBounds" />
          </mxGeometry>
        </mxCell>
        <mxCell id="vpoopPvdClBrJ7Ifae0P-242" value="BIGINT(19)" style="shape=partialRectangle;html=1;whiteSpace=wrap;connectable=0;strokeColor=inherit;overflow=hidden;fillColor=none;top=0;left=0;bottom=0;right=0;pointerEvents=1;" vertex="1" parent="vpoopPvdClBrJ7Ifae0P-240">
          <mxGeometry x="118" width="119" height="40" as="geometry">
            <mxRectangle width="119" height="40" as="alternateBounds" />
          </mxGeometry>
        </mxCell>
        <mxCell id="vpoopPvdClBrJ7Ifae0P-243" value="Primary key" style="shape=partialRectangle;html=1;whiteSpace=wrap;connectable=0;strokeColor=inherit;overflow=hidden;fillColor=none;top=0;left=0;bottom=0;right=0;pointerEvents=1;" vertex="1" parent="vpoopPvdClBrJ7Ifae0P-240">
          <mxGeometry x="237" width="118" height="40" as="geometry">
            <mxRectangle width="118" height="40" as="alternateBounds" />
          </mxGeometry>
        </mxCell>
        <mxCell id="vpoopPvdClBrJ7Ifae0P-244" value="" style="shape=tableRow;horizontal=0;startSize=0;swimlaneHead=0;swimlaneBody=0;strokeColor=inherit;top=0;left=0;bottom=0;right=0;collapsible=0;dropTarget=0;fillColor=none;points=[[0,0.5],[1,0.5]];portConstraint=eastwest;" vertex="1" parent="vpoopPvdClBrJ7Ifae0P-235">
          <mxGeometry y="110" width="355" height="40" as="geometry" />
        </mxCell>
        <mxCell id="vpoopPvdClBrJ7Ifae0P-245" value="text" style="shape=partialRectangle;html=1;whiteSpace=wrap;connectable=0;strokeColor=inherit;overflow=hidden;fillColor=none;top=0;left=0;bottom=0;right=0;pointerEvents=1;" vertex="1" parent="vpoopPvdClBrJ7Ifae0P-244">
          <mxGeometry width="118" height="40" as="geometry">
            <mxRectangle width="118" height="40" as="alternateBounds" />
          </mxGeometry>
        </mxCell>
        <mxCell id="vpoopPvdClBrJ7Ifae0P-246" value="VARCHAR(255)" style="shape=partialRectangle;html=1;whiteSpace=wrap;connectable=0;strokeColor=inherit;overflow=hidden;fillColor=none;top=0;left=0;bottom=0;right=0;pointerEvents=1;" vertex="1" parent="vpoopPvdClBrJ7Ifae0P-244">
          <mxGeometry x="118" width="119" height="40" as="geometry">
            <mxRectangle width="119" height="40" as="alternateBounds" />
          </mxGeometry>
        </mxCell>
        <mxCell id="vpoopPvdClBrJ7Ifae0P-247" value="answer content" style="shape=partialRectangle;html=1;whiteSpace=wrap;connectable=0;strokeColor=inherit;overflow=hidden;fillColor=none;top=0;left=0;bottom=0;right=0;pointerEvents=1;" vertex="1" parent="vpoopPvdClBrJ7Ifae0P-244">
          <mxGeometry x="237" width="118" height="40" as="geometry">
            <mxRectangle width="118" height="40" as="alternateBounds" />
          </mxGeometry>
        </mxCell>
        <mxCell id="vpoopPvdClBrJ7Ifae0P-248" value="" style="shape=tableRow;horizontal=0;startSize=0;swimlaneHead=0;swimlaneBody=0;strokeColor=inherit;top=0;left=0;bottom=0;right=0;collapsible=0;dropTarget=0;fillColor=none;points=[[0,0.5],[1,0.5]];portConstraint=eastwest;" vertex="1" parent="vpoopPvdClBrJ7Ifae0P-235">
          <mxGeometry y="150" width="355" height="40" as="geometry" />
        </mxCell>
        <mxCell id="vpoopPvdClBrJ7Ifae0P-249" value="is_correct" style="shape=partialRectangle;html=1;whiteSpace=wrap;connectable=0;strokeColor=inherit;overflow=hidden;fillColor=none;top=0;left=0;bottom=0;right=0;pointerEvents=1;" vertex="1" parent="vpoopPvdClBrJ7Ifae0P-248">
          <mxGeometry width="118" height="40" as="geometry">
            <mxRectangle width="118" height="40" as="alternateBounds" />
          </mxGeometry>
        </mxCell>
        <mxCell id="vpoopPvdClBrJ7Ifae0P-250" value="TINYINT(1)" style="shape=partialRectangle;html=1;whiteSpace=wrap;connectable=0;strokeColor=inherit;overflow=hidden;fillColor=none;top=0;left=0;bottom=0;right=0;pointerEvents=1;" vertex="1" parent="vpoopPvdClBrJ7Ifae0P-248">
          <mxGeometry x="118" width="119" height="40" as="geometry">
            <mxRectangle width="119" height="40" as="alternateBounds" />
          </mxGeometry>
        </mxCell>
        <mxCell id="vpoopPvdClBrJ7Ifae0P-251" value="correct answer indication" style="shape=partialRectangle;html=1;whiteSpace=wrap;connectable=0;strokeColor=inherit;overflow=hidden;fillColor=none;top=0;left=0;bottom=0;right=0;pointerEvents=1;" vertex="1" parent="vpoopPvdClBrJ7Ifae0P-248">
          <mxGeometry x="237" width="118" height="40" as="geometry">
            <mxRectangle width="118" height="40" as="alternateBounds" />
          </mxGeometry>
        </mxCell>
        <mxCell id="vpoopPvdClBrJ7Ifae0P-252" value="" style="shape=tableRow;horizontal=0;startSize=0;swimlaneHead=0;swimlaneBody=0;strokeColor=inherit;top=0;left=0;bottom=0;right=0;collapsible=0;dropTarget=0;fillColor=none;points=[[0,0.5],[1,0.5]];portConstraint=eastwest;" vertex="1" parent="vpoopPvdClBrJ7Ifae0P-235">
          <mxGeometry y="190" width="355" height="40" as="geometry" />
        </mxCell>
        <mxCell id="vpoopPvdClBrJ7Ifae0P-253" value="explanation" style="shape=partialRectangle;html=1;whiteSpace=wrap;connectable=0;strokeColor=inherit;overflow=hidden;fillColor=none;top=0;left=0;bottom=0;right=0;pointerEvents=1;" vertex="1" parent="vpoopPvdClBrJ7Ifae0P-252">
          <mxGeometry width="118" height="40" as="geometry">
            <mxRectangle width="118" height="40" as="alternateBounds" />
          </mxGeometry>
        </mxCell>
        <mxCell id="vpoopPvdClBrJ7Ifae0P-254" value="LONGTEXT" style="shape=partialRectangle;html=1;whiteSpace=wrap;connectable=0;strokeColor=inherit;overflow=hidden;fillColor=none;top=0;left=0;bottom=0;right=0;pointerEvents=1;" vertex="1" parent="vpoopPvdClBrJ7Ifae0P-252">
          <mxGeometry x="118" width="119" height="40" as="geometry">
            <mxRectangle width="119" height="40" as="alternateBounds" />
          </mxGeometry>
        </mxCell>
        <mxCell id="vpoopPvdClBrJ7Ifae0P-255" value="correct answer explanation" style="shape=partialRectangle;html=1;whiteSpace=wrap;connectable=0;strokeColor=inherit;overflow=hidden;fillColor=none;top=0;left=0;bottom=0;right=0;pointerEvents=1;" vertex="1" parent="vpoopPvdClBrJ7Ifae0P-252">
          <mxGeometry x="237" width="118" height="40" as="geometry">
            <mxRectangle width="118" height="40" as="alternateBounds" />
          </mxGeometry>
        </mxCell>
        <mxCell id="vpoopPvdClBrJ7Ifae0P-256" value="" style="shape=tableRow;horizontal=0;startSize=0;swimlaneHead=0;swimlaneBody=0;strokeColor=inherit;top=0;left=0;bottom=0;right=0;collapsible=0;dropTarget=0;fillColor=none;points=[[0,0.5],[1,0.5]];portConstraint=eastwest;" vertex="1" parent="vpoopPvdClBrJ7Ifae0P-235">
          <mxGeometry y="230" width="355" height="40" as="geometry" />
        </mxCell>
        <mxCell id="vpoopPvdClBrJ7Ifae0P-257" value="question_id" style="shape=partialRectangle;html=1;whiteSpace=wrap;connectable=0;strokeColor=inherit;overflow=hidden;fillColor=none;top=0;left=0;bottom=0;right=0;pointerEvents=1;" vertex="1" parent="vpoopPvdClBrJ7Ifae0P-256">
          <mxGeometry width="118" height="40" as="geometry">
            <mxRectangle width="118" height="40" as="alternateBounds" />
          </mxGeometry>
        </mxCell>
        <mxCell id="vpoopPvdClBrJ7Ifae0P-258" value="BIGINT(19)" style="shape=partialRectangle;html=1;whiteSpace=wrap;connectable=0;strokeColor=inherit;overflow=hidden;fillColor=none;top=0;left=0;bottom=0;right=0;pointerEvents=1;" vertex="1" parent="vpoopPvdClBrJ7Ifae0P-256">
          <mxGeometry x="118" width="119" height="40" as="geometry">
            <mxRectangle width="119" height="40" as="alternateBounds" />
          </mxGeometry>
        </mxCell>
        <mxCell id="vpoopPvdClBrJ7Ifae0P-259" value="reference to quiz question" style="shape=partialRectangle;html=1;whiteSpace=wrap;connectable=0;strokeColor=inherit;overflow=hidden;fillColor=none;top=0;left=0;bottom=0;right=0;pointerEvents=1;" vertex="1" parent="vpoopPvdClBrJ7Ifae0P-256">
          <mxGeometry x="237" width="118" height="40" as="geometry">
            <mxRectangle width="118" height="40" as="alternateBounds" />
          </mxGeometry>
        </mxCell>
      </root>
    </mxGraphModel>
  </diagram>
</mxfile>
